#N canvas 100 100 700 500 10;
#X obj 50 50 key;
#X obj 50 80 sel 97 98;
#X msg 150 80 440 800;
#X msg 200 80 660 3000;
#X obj 150 120 unpack f f;
#X msg 50 150 1 50;
#X obj 50 180 line~;
#X obj 300 120 osc~ 440;
#X obj 300 150 *~;
#X obj 300 180 lop~ 800;
#X obj 300 210 dac~;
#X connect 0 0 1 0;
#X connect 1 0 2 0;
#X connect 1 1 3 0;
#X connect 2 0 4 0;
#X connect 3 0 4 0;
#X connect 4 0 7 0;
#X connect 4 1 9 1;
#X connect 5 0 6 0;
#X connect 6 0 8 1;
#X connect 7 0 8 0;
#X connect 8 0 9 0;
#X connect 9 0 10 0;
#X connect 9 0 10 1;
